<svg version="1.1" id="Layer_1" xmlns="http://www.w3.org/2000/svg" xmlns:xlink="http://www.w3.org/1999/xlink" x="0px" y="0px"
	 width="100%" height="100%" viewBox="0 0 228 141" enable-background="new 0 0 228 141" xml:space="preserve">
<path fill="#FEFEFE" opacity="1.000000" stroke="none" 
	d="
M172.000000,142.000000 
	C114.666672,142.000000 57.833340,142.000000 1.000008,142.000000 
	C1.000005,95.000008 1.000005,48.000011 1.000003,1.000014 
	C76.999992,1.000009 152.999985,1.000009 228.999969,1.000005 
	C228.999985,47.999985 228.999985,94.999969 229.000000,141.999969 
	C210.166672,142.000000 191.333328,142.000000 172.000000,142.000000 
M100.881065,45.125904 
	C99.141327,47.091980 99.671333,48.179329 102.204185,47.987587 
	C103.288391,47.905510 104.303635,47.047333 105.371353,46.591278 
	C114.835617,42.548782 126.687302,44.984467 133.979385,52.459240 
	C141.470657,60.138195 143.574081,72.142738 139.088318,81.616821 
	C132.931488,94.620255 117.907043,100.462463 105.008606,94.868622 
	C91.500229,89.010269 85.789635,73.797760 91.667130,59.653362 
	C92.172714,58.436646 91.792290,56.851757 91.823441,55.437893 
	C90.795090,56.311974 89.309242,56.980293 88.809242,58.091999 
	C83.879883,69.052040 84.819931,79.526756 92.258217,89.058243 
	C99.598518,98.464172 111.742584,102.404823 122.563019,99.337494 
	C135.494568,95.671700 143.115509,87.031631 144.611343,73.887207 
	C146.065353,61.110569 140.444000,51.322678 130.176025,44.240677 
	C136.474686,43.995960 142.773346,43.751240 149.072021,43.506523 
	C149.064392,42.799526 149.056778,42.092533 149.049164,41.385540 
	C139.302902,41.385540 129.556641,41.385540 118.946609,41.271938 
	C116.330452,41.302242 113.714302,41.332546 110.179352,41.133224 
	C105.182472,41.111065 100.181656,40.956535 95.189865,41.105244 
	C90.515594,41.244488 85.688026,40.368599 81.161324,42.587826 
	C83.056953,43.594200 84.932533,43.762112 86.811417,43.875202 
	C91.748604,44.172356 96.687218,44.445648 100.881065,45.125904 
M96.984100,68.829277 
	C96.805878,81.163528 104.955429,89.642754 116.427650,89.059387 
	C125.008324,88.623062 126.158623,86.662163 122.199211,79.220612 
	C119.797508,74.706711 121.145500,72.367027 126.201836,72.317886 
	C127.322250,72.307007 128.443787,72.410797 130.122360,72.487137 
	C129.719009,74.127625 129.299286,75.318642 129.160629,76.541534 
	C129.017334,77.805099 129.147156,79.099648 129.157516,80.380638 
	C130.195038,79.562019 131.682648,78.960869 132.199722,77.890770 
	C136.824280,68.320168 130.441544,55.405548 120.110977,52.997677 
	C109.362045,50.492287 99.243660,56.622410 96.984100,68.829277 
M77.470482,116.832756 
	C79.967575,116.832062 82.485489,117.021492 84.953087,116.751366 
	C86.208183,116.613976 87.372765,115.649689 88.578270,115.059196 
	C87.301147,114.386559 86.046150,113.188332 84.743004,113.133453 
	C79.469566,112.911400 74.181305,113.041290 68.505875,113.041290 
	C68.505875,106.633713 68.580727,100.829506 68.427467,95.031326 
	C68.403709,94.132271 67.336136,93.260803 66.751274,92.376572 
	C66.102173,93.180992 64.906189,93.974297 64.889572,94.791588 
	C64.742279,102.034775 64.803986,109.282204 64.803986,116.832634 
	C69.201225,116.832634 72.848549,116.832634 77.470482,116.832756 
M162.039017,47.328255 
	C163.001968,46.782555 164.788071,46.258423 164.803024,45.687878 
	C164.992737,38.446461 164.927872,31.198366 164.927872,23.429262 
	C156.599792,23.830851 148.768936,22.761721 141.106110,24.111389 
	C141.096466,24.972889 141.086823,25.834389 141.077179,26.695889 
	C147.640488,26.695889 154.203781,26.695889 161.614807,26.695889 
	C161.614807,34.067822 161.614807,40.328415 162.039017,47.328255 
M67.908882,33.541740 
	C67.908882,31.611223 67.908882,29.680704 67.908882,27.411612 
	C74.269249,27.411612 79.910995,27.501247 85.544739,27.329010 
	C86.559296,27.297993 87.540886,26.188900 88.537697,25.577549 
	C87.677528,25.018147 86.826065,23.989565 85.955818,23.973415 
	C78.862381,23.841782 71.765434,23.899343 64.767937,23.899343 
	C63.165710,34.118401 63.900112,45.272026 67.693832,47.754879 
	C67.765495,43.343685 67.837158,38.932495 67.908882,33.541740 
M151.575836,116.555977 
	C155.862656,116.555977 160.149490,116.555977 164.288330,116.555977 
	C164.288330,108.285110 164.288330,100.574730 164.288330,92.864357 
	C163.668488,92.842346 163.048645,92.820328 162.428802,92.798317 
	C162.428802,99.451324 162.428802,106.104332 162.428802,112.941628 
	C157.727814,112.941628 154.243500,112.866043 150.764053,112.963943 
	C147.598816,113.052994 144.438889,113.330544 141.276611,113.525002 
	C141.290695,114.343307 141.304779,115.161613 141.318863,115.979919 
	C144.417755,116.171806 147.516632,116.363693 151.575836,116.555977 
z"/>
<path fill="#2D3759" opacity="1.000000" stroke="none" 
	d="
M97.024033,68.403091 
	C99.243660,56.622410 109.362045,50.492287 120.110977,52.997677 
	C130.441544,55.405548 136.824280,68.320168 132.199722,77.890770 
	C131.682648,78.960869 130.195038,79.562019 129.157516,80.380638 
	C129.147156,79.099648 129.017334,77.805099 129.160629,76.541534 
	C129.299286,75.318642 129.719009,74.127625 130.122360,72.487137 
	C128.443787,72.410797 127.322250,72.307007 126.201836,72.317886 
	C121.145500,72.367027 119.797508,74.706711 122.199211,79.220612 
	C126.158623,86.662163 125.008324,88.623062 116.427650,89.059387 
	C104.955429,89.642754 96.805878,81.163528 97.024033,68.403091 
M107.889526,80.453613 
	C109.269485,78.201553 111.395943,75.508446 108.566254,73.494125 
	C106.679359,72.150932 103.633408,72.435936 101.106194,71.992249 
	C100.786316,72.504791 100.466438,73.017342 100.146561,73.529884 
	C101.670364,76.136475 103.111221,78.799736 104.810097,81.286736 
	C105.056404,81.647308 106.539169,81.163254 107.889526,80.453613 
M117.109505,55.910400 
	C114.660286,56.106651 112.211067,56.302902 109.761848,56.499153 
	C109.545227,57.108913 109.328606,57.718670 109.111984,58.328426 
	C111.274658,60.125389 113.483391,63.371265 115.586815,63.304398 
	C117.616386,63.239876 119.537292,59.757168 122.186295,57.091442 
	C119.786995,56.456478 118.868553,56.213417 117.109505,55.910400 
M109.890839,64.852142 
	C108.787560,62.912693 107.684288,60.973248 105.881729,57.804527 
	C103.604698,61.926872 101.887978,65.034828 99.793587,68.826515 
	C104.467033,68.899117 108.388252,70.712341 109.890839,64.852142 
M112.612457,78.823395 
	C111.579132,80.639694 110.545815,82.455986 109.094757,85.006546 
	C113.632858,85.006546 117.217278,85.006546 121.769348,85.006546 
	C119.019310,81.210640 118.744247,76.286385 112.612457,78.823395 
M126.399590,60.679531 
	C125.480103,60.401096 123.864975,59.711617 123.748978,59.907948 
	C122.616135,61.825142 121.309937,63.825600 120.986595,65.944801 
	C120.855705,66.802689 122.867111,68.533104 124.186081,68.931580 
	C125.923798,69.456535 127.939713,69.060600 131.008820,69.060600 
	C129.311554,65.799416 128.135239,63.539234 126.399590,60.679531 
M111.674057,70.450752 
	C112.947777,71.828789 114.032402,73.569550 115.598793,74.386192 
	C116.139931,74.668312 118.746529,72.740074 118.856110,71.663391 
	C118.999008,70.259438 117.555511,67.431854 116.867081,67.454155 
	C115.150581,67.509735 113.475067,68.830605 111.674057,70.450752 
z"/>
<path fill="#2F385A" opacity="1.000000" stroke="none" 
	d="
M129.373901,44.732807 
	C140.444000,51.322678 146.065353,61.110569 144.611343,73.887207 
	C143.115509,87.031631 135.494568,95.671700 122.563019,99.337494 
	C111.742584,102.404823 99.598518,98.464172 92.258217,89.058243 
	C84.819931,79.526756 83.879883,69.052040 88.809242,58.091999 
	C89.309242,56.980293 90.795090,56.311974 91.823441,55.437893 
	C91.792290,56.851757 92.172714,58.436646 91.667130,59.653362 
	C85.789635,73.797760 91.500229,89.010269 105.008606,94.868622 
	C117.907043,100.462463 132.931488,94.620255 139.088318,81.616821 
	C143.574081,72.142738 141.470657,60.138195 133.979385,52.459240 
	C126.687302,44.984467 114.835617,42.548782 105.371353,46.591278 
	C104.303635,47.047333 103.288391,47.905510 102.204185,47.987587 
	C99.671333,48.179329 99.141327,47.091980 101.519783,44.838894 
	C105.138382,43.488873 108.118263,42.425861 111.098145,41.362850 
	C113.714302,41.332546 116.330452,41.302242 119.683914,41.513535 
	C123.405449,42.747692 126.389679,43.740250 129.373901,44.732807 
z"/>
<path fill="#FF7E19" opacity="1.000000" stroke="none" 
	d="
M76.983170,116.832695 
	C72.848549,116.832634 69.201225,116.832634 64.803986,116.832634 
	C64.803986,109.282204 64.742279,102.034775 64.889572,94.791588 
	C64.906189,93.974297 66.102173,93.180992 66.751274,92.376572 
	C67.336136,93.260803 68.403709,94.132271 68.427467,95.031326 
	C68.580727,100.829506 68.505875,106.633713 68.505875,113.041290 
	C74.181305,113.041290 79.469566,112.911400 84.743004,113.133453 
	C86.046150,113.188332 87.301147,114.386559 88.578270,115.059189 
	C87.372765,115.649689 86.208183,116.613976 84.953087,116.751366 
	C82.485489,117.021492 79.967575,116.832062 76.983170,116.832695 
z"/>
<path fill="#FF801D" opacity="1.000000" stroke="none" 
	d="
M161.826904,46.958633 
	C161.614807,40.328415 161.614807,34.067822 161.614807,26.695889 
	C154.203781,26.695889 147.640488,26.695889 141.077179,26.695889 
	C141.086823,25.834389 141.096466,24.972889 141.106110,24.111389 
	C148.768936,22.761721 156.599792,23.830851 164.927872,23.429262 
	C164.927872,31.198366 164.992737,38.446461 164.803024,45.687878 
	C164.788071,46.258423 163.001968,46.782555 161.826904,46.958633 
z"/>
<path fill="#FF7E19" opacity="1.000000" stroke="none" 
	d="
M67.908859,34.031521 
	C67.837158,38.932495 67.765495,43.343685 67.693832,47.754879 
	C63.900112,45.272026 63.165710,34.118401 64.767937,23.899343 
	C71.765434,23.899343 78.862381,23.841782 85.955818,23.973415 
	C86.826065,23.989565 87.677528,25.018147 88.537697,25.577549 
	C87.540886,26.188900 86.559296,27.297993 85.544739,27.329010 
	C79.910995,27.501247 74.269249,27.411612 67.908882,27.411612 
	C67.908882,29.680704 67.908882,31.611223 67.908859,34.031521 
z"/>
<path fill="#FF780F" opacity="1.000000" stroke="none" 
	d="
M151.095673,116.555779 
	C147.516632,116.363693 144.417755,116.171806 141.318863,115.979919 
	C141.304779,115.161613 141.290695,114.343307 141.276611,113.525002 
	C144.438889,113.330544 147.598816,113.052994 150.764053,112.963943 
	C154.243500,112.866043 157.727814,112.941628 162.428802,112.941628 
	C162.428802,106.104332 162.428802,99.451324 162.428802,92.798317 
	C163.048645,92.820328 163.668488,92.842346 164.288330,92.864357 
	C164.288330,100.574730 164.288330,108.285110 164.288330,116.555977 
	C160.149490,116.555977 155.862656,116.555977 151.095673,116.555779 
z"/>
<path fill="#FBAC72" opacity="1.000000" stroke="none" 
	d="
M110.638748,41.248039 
	C108.118263,42.425861 105.138382,43.488873 101.891884,44.640163 
	C96.687218,44.445648 91.748604,44.172356 86.811417,43.875202 
	C84.932533,43.762112 83.056953,43.594200 81.161324,42.587826 
	C85.688026,40.368599 90.515594,41.244488 95.189865,41.105244 
	C100.181656,40.956535 105.182472,41.111065 110.638748,41.248039 
z"/>
<path fill="#FBAC72" opacity="1.000000" stroke="none" 
	d="
M129.774963,44.486740 
	C126.389679,43.740250 123.405449,42.747692 120.115799,41.570335 
	C129.556641,41.385540 139.302902,41.385540 149.049164,41.385540 
	C149.056778,42.092533 149.064392,42.799526 149.072021,43.506523 
	C142.773346,43.751240 136.474686,43.995960 129.774963,44.486740 
z"/>
<path fill="#EBECEF" opacity="1.000000" stroke="none" 
	d="
M107.669647,80.761826 
	C106.539169,81.163254 105.056404,81.647308 104.810097,81.286736 
	C103.111221,78.799736 101.670364,76.136475 100.146561,73.529884 
	C100.466438,73.017342 100.786316,72.504791 101.106194,71.992249 
	C103.633408,72.435936 106.679359,72.150932 108.566254,73.494125 
	C111.395943,75.508446 109.269485,78.201553 107.669647,80.761826 
z"/>
<path fill="#ECEDF0" opacity="1.000000" stroke="none" 
	d="
M117.529808,55.940376 
	C118.868553,56.213417 119.786995,56.456478 122.186295,57.091442 
	C119.537292,59.757168 117.616386,63.239876 115.586815,63.304398 
	C113.483391,63.371265 111.274658,60.125389 109.111984,58.328426 
	C109.328606,57.718670 109.545227,57.108913 109.761848,56.499153 
	C112.211067,56.302902 114.660286,56.106651 117.529808,55.940376 
z"/>
<path fill="#EFF0F2" opacity="1.000000" stroke="none" 
	d="
M109.939178,65.242523 
	C108.388252,70.712341 104.467033,68.899117 99.793587,68.826515 
	C101.887978,65.034828 103.604698,61.926872 105.881729,57.804527 
	C107.684288,60.973248 108.787560,62.912693 109.939178,65.242523 
z"/>
<path fill="#EFF0F2" opacity="1.000000" stroke="none" 
	d="
M112.860077,78.506912 
	C118.744247,76.286385 119.019310,81.210640 121.769348,85.006546 
	C117.217278,85.006546 113.632858,85.006546 109.094757,85.006546 
	C110.545815,82.455986 111.579132,80.639694 112.860077,78.506912 
z"/>
<path fill="#F1F2F4" opacity="1.000000" stroke="none" 
	d="
M126.679260,60.979294 
	C128.135239,63.539234 129.311554,65.799416 131.008820,69.060600 
	C127.939713,69.060600 125.923798,69.456535 124.186081,68.931580 
	C122.867111,68.533104 120.855705,66.802689 120.986595,65.944801 
	C121.309937,63.825600 122.616135,61.825142 123.748978,59.907948 
	C123.864975,59.711617 125.480103,60.401096 126.679260,60.979294 
z"/>
<path fill="#EDEEF1" opacity="1.000000" stroke="none" 
	d="
M111.728577,70.047165 
	C113.475067,68.830605 115.150581,67.509735 116.867081,67.454155 
	C117.555511,67.431854 118.999008,70.259438 118.856110,71.663391 
	C118.746529,72.740074 116.139931,74.668312 115.598793,74.386192 
	C114.032402,73.569550 112.947777,71.828789 111.728577,70.047165 
z"/>
</svg>